<svg width="34" height="34" viewBox="0 0 34 34" fill="none" xmlns="http://www.w3.org/2000/svg">
<g clip-path="url(#clip0_139_1862)">
<path fill-rule="evenodd" clip-rule="evenodd" d="M15.6926 7.76639C16.3208 8.68094 16.6368 9.77017 16.6368 11.0423C16.6368 12.3514 16.3208 13.4057 15.6847 14.2011C15.3252 14.6471 14.8018 15.056 14.1084 15.4239C15.1613 15.8247 15.9534 16.4556 16.4926 17.3188C17.028 18.1799 17.2946 19.2301 17.2946 20.4631C17.2946 21.7332 16.9904 22.8759 16.3761 23.8829C15.987 24.5509 15.4991 25.116 14.9163 25.5723C14.2585 26.0963 13.4842 26.4539 12.5874 26.6492C11.6906 26.8444 10.7207 26.9389 9.67184 26.9389H0.37793V5.479H10.3454C12.862 5.52011 14.6418 6.28051 15.6926 7.76639ZM4.49056 9.20706V13.9421H9.50591C10.3988 13.9421 11.1277 13.7633 11.6887 13.4078C12.2437 13.0543 12.5262 12.4254 12.5262 11.5253C12.5262 10.5244 12.1568 9.86471 11.418 9.54205C10.78 9.32009 9.96814 9.20706 8.98048 9.20706H4.49056ZM4.49056 17.4914V23.2129H9.49801C10.3928 23.2129 11.0901 23.0876 11.5879 22.8369C12.4926 22.3683 12.943 21.4763 12.943 20.159C12.943 19.0389 12.5084 18.2744 11.6314 17.8552C11.1395 17.6229 10.4521 17.4996 9.56912 17.4914H4.49056ZM29.7649 11.3937C30.8315 11.889 31.7086 12.672 32.398 13.7407C33.0281 14.684 33.433 15.7774 33.6168 17.0208C33.7234 17.7503 33.7689 18.8005 33.7491 20.1713H22.6379C22.7031 21.7641 23.2305 22.88 24.2339 23.5192C24.8443 23.9179 25.5772 24.1152 26.4345 24.1152C27.3392 24.1152 28.0799 23.8747 28.6468 23.3897C28.9589 23.1266 29.2315 22.7629 29.4686 22.2963H33.5397C33.433 23.2376 32.9392 24.1933 32.0622 25.1674C30.6972 26.7088 28.7831 27.4794 26.3258 27.4794C24.2952 27.4794 22.5016 26.83 20.9549 25.527C19.3983 24.2261 18.626 22.1073 18.626 19.1766C18.626 16.4248 19.3253 14.3182 20.7238 12.8488C22.1263 11.3855 23.9436 10.6498 26.1777 10.6498C27.5051 10.6498 28.7021 10.8964 29.7649 11.3937ZM23.7994 14.9779C23.2364 15.5821 22.8809 16.4022 22.7367 17.4338H29.6088C29.5377 16.3323 29.1802 15.4979 28.5481 14.9266C27.9081 14.3573 27.1199 14.0716 26.1796 14.0716C25.1584 14.0716 24.3623 14.3737 23.7994 14.9779ZM21.7055 9.15157H30.5431V6.48192H21.7055V9.15157Z" fill="#73EAF1"/>
</g>
<defs>
<clipPath id="clip0_139_1862">
<rect width="33.3757" height="33.0007" fill="white" transform="translate(0.37793 0.000488281)"/>
</clipPath>
</defs>
</svg>
