<svg width="29" height="29" viewBox="0 0 29 29" fill="none" xmlns="http://www.w3.org/2000/svg">
<g clip-path="url(#clip0_139_1863)">
<path fill-rule="evenodd" clip-rule="evenodd" d="M0.378906 14.8623C0.378906 21.317 4.46166 26.7939 10.1243 28.726C10.8373 28.8606 11.0971 28.4094 11.0971 28.0219C11.0971 27.6748 11.0849 26.7563 11.0779 25.5373C7.1141 26.4199 6.27778 23.5783 6.27778 23.5783C5.62954 21.8901 4.69524 21.4408 4.69524 21.4408C3.40139 20.5339 4.79322 20.5527 4.79322 20.5527C6.22354 20.6559 6.97588 22.0588 6.97588 22.0588C8.24786 24.2914 10.3115 23.6464 11.1234 23.2724C11.2528 22.3279 11.6211 21.6847 12.0279 21.3188C8.86373 20.9501 5.53681 19.697 5.53681 14.0981C5.53681 12.5023 6.09232 11.1981 7.00387 10.1765C6.85778 9.80692 6.36876 8.32152 7.14384 6.31049C7.14384 6.31049 8.34059 5.91671 11.0621 7.80755C12.1994 7.48374 13.418 7.32138 14.6296 7.316C15.8404 7.32138 17.059 7.48374 18.198 7.80755C20.9178 5.91671 22.1128 6.31049 22.1128 6.31049C22.8896 8.32152 22.4006 9.80692 22.2545 10.1765C23.1678 11.1981 23.7189 12.5023 23.7189 14.0981C23.7189 19.7105 20.3877 20.9456 17.213 21.308C17.7247 21.7592 18.1796 22.6508 18.1796 24.0133C18.1796 25.9669 18.163 27.5429 18.163 28.0219C18.163 28.413 18.4193 28.8669 19.1428 28.7242C24.8002 26.7885 28.8795 21.3161 28.8795 14.8623C28.8795 6.79217 22.4986 0.250488 14.6279 0.250488C6.7598 0.250488 0.378906 6.79217 0.378906 14.8623Z" fill="#73EAF1"/>
</g>
<defs>
<clipPath id="clip0_139_1863">
<rect width="28.5006" height="28.5006" fill="white" transform="translate(0.378906 0.250488)"/>
</clipPath>
</defs>
</svg>
