<svg width="27" height="27" viewBox="0 0 27 27" fill="none" xmlns="http://www.w3.org/2000/svg">
<path d="M23.9002 8.01014C23.9164 8.25086 23.9164 8.49158 23.9164 8.73452C23.9164 16.137 18.4215 24.6742 8.37377 24.6742V24.6698C5.40564 24.6742 2.49917 23.8023 0.000488281 22.1583C0.432078 22.2116 0.865832 22.2382 1.30067 22.2393C3.76041 22.2415 6.14984 21.3951 8.08496 19.8365C5.74745 19.791 3.69767 18.228 2.9816 15.9462C3.80043 16.1081 4.64414 16.0748 5.44783 15.8497C2.89939 15.3216 1.06594 13.0253 1.06594 10.3586C1.06594 10.3341 1.06594 10.3109 1.06594 10.2876C1.82528 10.7213 2.67548 10.962 3.54515 10.9886C1.1449 9.34353 0.405036 6.06884 1.85449 3.50854C4.62791 7.00843 8.71991 9.13609 13.1126 9.36128C12.6724 7.41554 13.2738 5.37663 14.6929 4.00884C16.8931 1.88783 20.3534 1.99655 22.4215 4.25178C23.6449 4.0044 24.8175 3.54404 25.8905 2.89176C25.4827 4.18855 24.6292 5.2901 23.4892 5.99008C24.5719 5.85918 25.6298 5.56188 26.626 5.10817C25.8926 6.23523 24.9689 7.21698 23.9002 8.01014Z" fill="#73EAF1"/>
</svg>
