<svg width="29" height="29" viewBox="0 0 29 29" fill="none" xmlns="http://www.w3.org/2000/svg">
<path fill-rule="evenodd" clip-rule="evenodd" d="M7.18453 14.5008C7.18453 10.4593 10.4608 7.18306 14.5023 7.18306C18.5437 7.18306 21.82 10.4593 21.82 14.5008C21.82 18.5423 18.5437 21.8185 14.5023 21.8185C10.4608 21.8185 7.18453 18.5423 7.18453 14.5008ZM14.5023 19.2509C11.8788 19.2509 9.75214 17.1242 9.75214 14.5008C9.75214 11.8774 11.8788 9.75068 14.5023 9.75068C17.1257 9.75068 19.2523 11.8774 19.2523 14.5008C19.2523 17.1242 17.1257 19.2509 14.5023 19.2509Z" fill="#73EAF1"/>
<path d="M22.1091 8.60396C23.0535 8.60396 23.8191 7.83839 23.8191 6.89395C23.8191 5.94952 23.0535 5.18389 22.1091 5.18389C21.1647 5.18389 20.3991 5.94952 20.3991 6.89395C20.3991 7.83839 21.1647 8.60396 22.1091 8.60396Z" fill="#73EAF1"/>
<path fill-rule="evenodd" clip-rule="evenodd" d="M14.5023 0.250488C10.6321 0.250488 10.1468 0.266893 8.62686 0.336243C7.11009 0.405424 6.07418 0.646341 5.16776 0.998638C4.23068 1.36276 3.43597 1.85002 2.6437 2.64224C1.85149 3.43451 1.36422 4.22921 1.0001 5.1663C0.647806 6.07272 0.406889 7.10862 0.337708 8.6254C0.268357 10.1453 0.251953 10.6306 0.251953 14.5008C0.251953 18.3709 0.268357 18.8562 0.337708 20.3761C0.406889 21.8929 0.647806 22.9288 1.0001 23.8353C1.36422 24.7723 1.85149 25.567 2.6437 26.3593C3.43597 27.1515 4.23068 27.6388 5.16776 28.003C6.07418 28.3552 7.11009 28.5961 8.62686 28.6653C10.1468 28.7347 10.6321 28.7511 14.5023 28.7511C18.3724 28.7511 18.8577 28.7347 20.3776 28.6653C21.8944 28.5961 22.9303 28.3552 23.8367 28.003C24.7738 27.6388 25.5685 27.1515 26.3608 26.3593C27.153 25.567 27.6403 24.7723 28.0044 23.8353C28.3567 22.9288 28.5976 21.8929 28.6668 20.3761C28.7361 18.8562 28.7525 18.3709 28.7525 14.5008C28.7525 10.6306 28.7361 10.1453 28.6668 8.6254C28.5976 7.10862 28.3567 6.07272 28.0044 5.1663C27.6403 4.22921 27.153 3.43451 26.3608 2.64224C25.5685 1.85002 24.7738 1.36276 23.8367 0.998638C22.9303 0.646341 21.8944 0.405424 20.3776 0.336243C18.8577 0.266893 18.3724 0.250488 14.5023 0.250488ZM14.5023 2.8181C18.3072 2.8181 18.7579 2.83264 20.2606 2.9012C21.65 2.96455 22.4045 3.1967 22.9067 3.39186C23.5718 3.65037 24.0465 3.95916 24.5452 4.45786C25.0439 4.95649 25.3526 5.4312 25.6112 6.09636C25.8063 6.59851 26.0385 7.35305 26.1018 8.74244C26.1704 10.2451 26.1849 10.6958 26.1849 14.5008C26.1849 18.3058 26.1704 18.7565 26.1018 20.2591C26.0385 21.6485 25.8063 22.403 25.6112 22.9052C25.3526 23.5704 25.0439 24.0451 24.5452 24.5437C24.0465 25.0424 23.5718 25.3512 22.9067 25.6097C22.4045 25.8048 21.65 26.037 20.2606 26.1003C18.7582 26.1689 18.3075 26.1834 14.5023 26.1834C10.697 26.1834 10.2464 26.1689 8.7439 26.1003C7.35451 26.037 6.59997 25.8048 6.09783 25.6097C5.43266 25.3512 4.95796 25.0424 4.45932 24.5437C3.96069 24.0451 3.65184 23.5704 3.39333 22.9052C3.19817 22.403 2.96602 21.6485 2.90267 20.2591C2.83411 18.7565 2.81957 18.3058 2.81957 14.5008C2.81957 10.6958 2.83411 10.2451 2.90267 8.74244C2.96602 7.35305 3.19817 6.59851 3.39333 6.09636C3.65184 5.4312 3.96063 4.95649 4.45932 4.45786C4.95796 3.95916 5.43266 3.65037 6.09783 3.39186C6.59997 3.1967 7.35451 2.96455 8.7439 2.9012C10.2465 2.83264 10.6973 2.8181 14.5023 2.8181Z" fill="#73EAF1"/>
</svg>
