<svg width="479" height="862" viewBox="0 0 479 862" fill="none" xmlns="http://www.w3.org/2000/svg">
<path d="M2.5 80V0H243V75.5C243 103.114 265.386 125.5 293 125.5H428C455.614 125.5 478 147.886 478 175.5V316.5C478 344.114 455.614 366.5 428 366.5H287.5C259.886 366.5 237.5 344.114 237.5 316.5V180C237.5 152.386 215.114 130 187.5 130H52.5C24.8858 130 2.5 107.614 2.5 80Z" fill="#73EAF1" fill-opacity="0.22"/>
<path d="M189 858H51C23.3858 858 1 835.614 1 808V670.5C1 642.886 23.3858 620.5 51 620.5H189C216.614 620.5 239 598.114 239 570.5V433.5C239 405.886 261.386 383.5 289 383.5H428C455.614 383.5 478 405.886 478 433.5V576C478 603.614 455.614 626 428 626H289C261.386 626 239 648.386 239 676V808C239 835.614 216.614 858 189 858Z" fill="#D9D9D9" stroke="white"/>
<rect x="3.5" y="158" width="214" height="436" rx="49.5" fill="white" fill-opacity="0.2" stroke="black"/>
<circle cx="367" cy="750.5" r="110.5" fill="#4C9AA6" stroke="black"/>
</svg>
