<svg width="27" height="27" viewBox="0 0 27 27" fill="none" xmlns="http://www.w3.org/2000/svg">
<path d="M24.7795 0.252474H2.09119C1.0189 0.240373 0.139552 1.09932 0.126465 2.17163V24.9545C0.139104 26.0273 1.01838 26.8871 2.09119 26.8759H24.7795C25.8544 26.8892 26.7371 26.0294 26.752 24.9545V2.16998C26.7367 1.09556 25.8539 0.236659 24.7795 0.250657" fill="#73EAF1"/>
<path d="M18.8674 22.9373H22.8125L22.8141 15.9675C22.8141 12.5459 22.0769 9.91578 18.0784 9.91578C16.5498 9.85904 15.1139 10.6477 14.3417 11.9681H14.2887V10.2318H10.5014V22.9369H14.4465V16.6517C14.4465 14.9943 14.7608 13.3892 16.8156 13.3892C18.8411 13.3892 18.8674 15.2857 18.8674 16.759V22.9373Z" fill="#080E21"/>
<path d="M3.76025 6.20609C3.76048 7.47051 4.78565 8.49534 6.05004 8.49511C6.65722 8.495 7.23949 8.25369 7.66875 7.82426C8.09801 7.39483 8.33911 6.81247 8.339 6.20527C8.33878 4.94086 7.3136 3.91603 6.04922 3.91626C4.78483 3.91649 3.76003 4.94168 3.76025 6.20609Z" fill="#080E21"/>
<path d="M4.07339 22.9373H8.02257V10.2318H4.07339V22.9373Z" fill="#080E21"/>
</svg>
