<svg width="374" height="301" viewBox="0 0 374 301" fill="none" xmlns="http://www.w3.org/2000/svg">
<path d="M61.277 255.091H67.6009V277.898C67.6009 280.398 67.0099 282.597 65.8281 284.494C64.6577 286.392 63.0099 287.875 60.8849 288.943C58.7599 290 56.277 290.528 53.4361 290.528C50.5838 290.528 48.0952 290 45.9702 288.943C43.8452 287.875 42.1974 286.392 41.027 284.494C39.8565 282.597 39.2713 280.398 39.2713 277.898V255.091H45.5952V277.369C45.5952 278.824 45.9134 280.119 46.5497 281.256C47.1974 282.392 48.1065 283.284 49.277 283.932C50.4474 284.568 51.8338 284.886 53.4361 284.886C55.0384 284.886 56.4247 284.568 57.5952 283.932C58.777 283.284 59.6861 282.392 60.3224 281.256C60.9588 280.119 61.277 278.824 61.277 277.369V255.091ZM79.7585 255.091L87.446 267.875H87.7188L95.4403 255.091H102.651L91.8949 272.545L102.821 290H95.4915L87.7188 277.301H87.446L79.6733 290H72.3778L83.4062 272.545L72.5142 255.091H79.7585Z" fill="#73EAF1"/>
<path d="M107.615 290V255.091H120.706C123.388 255.091 125.638 255.591 127.456 256.591C129.286 257.591 130.666 258.966 131.598 260.716C132.541 262.455 133.013 264.432 133.013 266.648C133.013 268.886 132.541 270.875 131.598 272.614C130.655 274.352 129.263 275.722 127.422 276.722C125.581 277.71 123.314 278.205 120.621 278.205H111.945V273.006H119.768C121.337 273.006 122.621 272.733 123.621 272.188C124.621 271.642 125.359 270.892 125.837 269.938C126.325 268.983 126.57 267.886 126.57 266.648C126.57 265.409 126.325 264.318 125.837 263.375C125.359 262.432 124.615 261.699 123.604 261.176C122.604 260.642 121.314 260.375 119.734 260.375H113.939V290H107.615ZM138.506 290V255.091H161.21V260.392H144.83V269.869H160.034V275.17H144.83V284.699H161.347V290H138.506ZM167.662 290V255.091H180.753C183.435 255.091 185.685 255.557 187.503 256.489C189.332 257.42 190.713 258.727 191.645 260.409C192.588 262.08 193.06 264.028 193.06 266.256C193.06 268.494 192.582 270.437 191.628 272.085C190.685 273.722 189.293 274.989 187.452 275.886C185.611 276.773 183.349 277.216 180.668 277.216H171.344V271.966H179.815C181.384 271.966 182.668 271.75 183.668 271.318C184.668 270.875 185.406 270.233 185.884 269.392C186.372 268.54 186.616 267.494 186.616 266.256C186.616 265.017 186.372 263.96 185.884 263.085C185.395 262.199 184.651 261.528 183.651 261.074C182.651 260.608 181.361 260.375 179.781 260.375H173.986V290H167.662ZM185.696 274.182L194.338 290H187.281L178.793 274.182H185.696ZM205.205 255.091V290H198.881V255.091H205.205ZM212.053 290V255.091H234.757V260.392H218.376V269.869H233.581V275.17H218.376V284.699H234.893V290H212.053ZM269.896 255.091V290H264.271L247.822 266.222H247.533V290H241.209V255.091H246.868L263.3 278.886H263.607V255.091H269.896ZM306.668 266.869H300.293C300.111 265.824 299.776 264.898 299.287 264.091C298.798 263.273 298.19 262.58 297.463 262.011C296.736 261.443 295.906 261.017 294.974 260.733C294.054 260.438 293.06 260.29 291.991 260.29C290.094 260.29 288.412 260.767 286.946 261.722C285.48 262.665 284.332 264.051 283.503 265.881C282.673 267.699 282.259 269.92 282.259 272.545C282.259 275.216 282.673 277.466 283.503 279.295C284.344 281.114 285.491 282.489 286.946 283.42C288.412 284.341 290.088 284.801 291.974 284.801C293.02 284.801 293.997 284.665 294.906 284.392C295.827 284.108 296.651 283.693 297.378 283.148C298.116 282.602 298.736 281.932 299.236 281.136C299.747 280.341 300.099 279.432 300.293 278.409L306.668 278.443C306.429 280.102 305.912 281.659 305.116 283.114C304.332 284.568 303.304 285.852 302.031 286.966C300.759 288.068 299.27 288.932 297.565 289.557C295.861 290.17 293.969 290.477 291.889 290.477C288.821 290.477 286.082 289.767 283.673 288.347C281.264 286.926 279.366 284.875 277.98 282.193C276.594 279.511 275.901 276.295 275.901 272.545C275.901 268.784 276.599 265.568 277.997 262.898C279.395 260.216 281.298 258.165 283.707 256.744C286.116 255.324 288.844 254.614 291.889 254.614C293.832 254.614 295.639 254.886 297.31 255.432C298.98 255.977 300.469 256.778 301.776 257.835C303.082 258.881 304.156 260.165 304.997 261.688C305.849 263.199 306.406 264.926 306.668 266.869ZM312.459 290V255.091H335.163V260.392H318.783V269.869H333.987V275.17H318.783V284.699H335.3V290H312.459Z" fill="white"/>
<path d="M231.374 7.12963C244.283 13.036 257.977 23.7937 268.17 43.1873L327.71 156.452C332.76 166.063 327.271 177.807 316.615 180.181L306.723 182.383C299.465 184 292 180.64 288.464 174.149L225.145 58.2228C225.145 58.2228 213.669 38.2328 190.961 45.9398C190.961 45.9398 173.51 51.1581 172.273 70.2765C172.262 79.8873 172.25 89.5095 172.239 99.1203C172.227 114.557 173.799 131.061 171.823 146.36C167.547 179.379 132.184 202.809 99.8945 201.433C79.185 200.55 58.753 191.191 45.3473 175.353C45.1046 175.066 44.8619 174.768 44.6192 174.47C35.4086 163.208 32.011 150.741 32.011 136.508C32.011 114.11 32.011 91.7115 32.011 69.3016C32.011 48.1418 32.011 47.3046 32.011 26.1448L34.9464 25.9498C41.7416 25.6516 35.5357 16.3849 38.6791 16.3849L60.6251 16.6257C60.9718 16.6257 61.307 16.6143 61.6537 16.5913C68.0214 16.0638 73.4761 21.0527 73.4761 27.3949V127.976C73.4761 127.976 73.0832 152.484 99.7789 155.982C100.75 156.108 101.732 156.143 102.714 156.086C109.278 155.719 131.999 152.175 130.254 120.877V62.7874C130.254 50.5617 133.836 38.4966 141.071 28.6106C150.293 16.0064 166.391 2.06044 192.937 0.47776C192.948 0.500697 211.208 -2.1027 231.374 7.12963Z" fill="url(#paint0_linear_337_136)"/>
<path fill-rule="evenodd" clip-rule="evenodd" d="M196.833 37.9C215.058 12.967 253.483 15.4557 267.929 42.7169L268.172 43.1871L335.339 170.926C342.758 185.044 332.438 201.949 316.386 201.949C308.551 201.949 301.328 197.694 297.595 190.847L272.366 144.658L243.591 191.283C235.512 205.045 215.6 205.389 207.037 191.914C202.854 185.33 202.385 176.084 206.222 169.295L248.299 100.598L225.147 58.2111C225.147 58.2111 213.659 38.2326 190.962 45.9281L196.833 37.9Z" fill="url(#paint1_linear_337_136)"/>
<path d="M45.2958 175.565C45.0539 175.277 44.8119 174.977 44.57 174.689C35.3873 163.399 32 150.898 32 136.644C32 114.191 32 91.7381 32 69.2966C32 48.089 32 41.4926 32 20.285V0H47.6232C61.8292 0 73.3391 11.5321 73.3391 25.7397V128.099C73.3391 128.099 73.8576 137.255 77.6828 142.699" fill="url(#paint2_linear_337_136)"/>
<path d="M49.0691 179.711C49.0691 179.711 32 165.57 32 136.623V98.0995C32 98.0995 63.4802 106.472 75.1524 137.609C75.1524 137.609 105.939 210.252 171.846 145.626C171.846 145.626 171.165 177.05 131.26 195.4C131.26 195.4 90.8462 217.156 49.0691 179.711Z" fill="url(#paint3_linear_337_136)"/>
<path d="M224.753 4.46888C204.46 -1.34577 192.892 0.466287 192.892 0.466287C156.812 2.61094 140.032 27.6128 133.572 41.0197C131.341 45.6646 130.197 50.7108 130.197 55.8603L130.243 102.595C130.243 102.595 160.487 102.286 172.205 70.4141C172.228 70.3567 172.205 70.2994 172.205 70.2306C173.234 53.8876 186.385 47.9354 186.385 47.9354C186.385 47.9354 219.842 17.1074 257.978 27.7619C258.001 27.7619 242.388 9.51512 224.753 4.46888Z" fill="#B7F0FD"/>
<path d="M235.176 76.6072C235.176 76.6072 269.807 110.073 298.93 101.666L297.849 99.6517L296.767 97.6371C296.767 97.6371 294.885 92.6178 284.847 74.4228C284.847 74.4228 279.827 64.3842 275.193 56.4315C275.193 56.4315 267.338 36.9483 258 27.7733C258 27.7733 222.344 15.2276 186.407 47.9468C186.407 47.9468 215.102 39.8614 225.145 58.2343L235.176 76.6072Z" fill="url(#paint4_linear_337_136)"/>
<ellipse cx="320.743" cy="23.1469" rx="22.2567" ry="22.5534" fill="#B7F0FD"/>
<defs>
<linearGradient id="paint0_linear_337_136" x1="-13.8247" y1="100.826" x2="283.772" y2="100.826" gradientUnits="userSpaceOnUse">
<stop offset="0.5" stop-color="#73EAF1"/>
<stop offset="0.702701" stop-color="#4C9AA6"/>
</linearGradient>
<linearGradient id="paint1_linear_337_136" x1="276.986" y1="169.743" x2="232.16" y2="34.2024" gradientUnits="userSpaceOnUse">
<stop stop-color="#73EAF1"/>
<stop offset="0.475769" stop-color="#4C9AA6"/>
</linearGradient>
<linearGradient id="paint2_linear_337_136" x1="56.1968" y1="54.7399" x2="50.1773" y2="128.514" gradientUnits="userSpaceOnUse">
<stop offset="0.00072338" stop-color="#73EAF1"/>
<stop offset="0.8769" stop-color="#4C9AA6"/>
</linearGradient>
<linearGradient id="paint3_linear_337_136" x1="14.0345" y1="149.891" x2="208.081" y2="149.891" gradientUnits="userSpaceOnUse">
<stop offset="0.2215" stop-color="#73EAF1"/>
<stop offset="0.4808" stop-color="#4C9AA6"/>
</linearGradient>
<linearGradient id="paint4_linear_337_136" x1="291.764" y1="111.52" x2="222.792" y2="-24.633" gradientUnits="userSpaceOnUse">
<stop offset="0.3609" stop-color="#73EAF1"/>
<stop offset="0.8763" stop-color="#4C9AA6"/>
</linearGradient>
</defs>
</svg>
