<svg width="28" height="28" viewBox="0 0 28 28" fill="none" xmlns="http://www.w3.org/2000/svg">
<path d="M12.7544 2.72803H10.5263C4.95611 2.72803 2.72803 4.95611 2.72803 10.5263V17.2105C2.72803 22.7807 4.95611 25.0088 10.5263 25.0088H17.2105C22.7807 25.0088 25.0088 22.7807 25.0088 17.2105V14.9825" stroke="#292D32" stroke-width="2.15461" stroke-linecap="round" stroke-linejoin="round"/>
<path d="M18.3692 3.86444L9.59054 12.6431C9.25633 12.9773 8.92211 13.6346 8.85527 14.1136L8.37623 17.4669C8.19799 18.6812 9.0558 19.5278 10.2701 19.3607L13.6234 18.8817C14.0913 18.8148 14.7485 18.4806 15.0939 18.1464L23.8725 9.36779C25.3876 7.8527 26.1006 6.09252 23.8725 3.86444C21.6444 1.63636 19.8843 2.34935 18.3692 3.86444Z" stroke="#292D32" stroke-width="2.15461" stroke-miterlimit="10" stroke-linecap="round" stroke-linejoin="round"/>
<path d="M17.1104 5.12329C17.8568 7.78584 19.94 9.8691 22.6137 10.6266" stroke="#292D32" stroke-width="2.15461" stroke-miterlimit="10" stroke-linecap="round" stroke-linejoin="round"/>
</svg>
