<svg width="381" height="252" viewBox="0 0 381 252" fill="none" xmlns="http://www.w3.org/2000/svg">
<path d="M247.959 9.36491C264.013 16.7106 281.045 30.0898 293.722 54.2094L367.77 195.076C374.051 207.029 367.224 221.634 353.972 224.587L341.669 227.326C332.643 229.337 323.358 225.157 318.96 217.084L240.212 72.9088C240.212 72.9088 225.94 48.0475 197.697 57.6326C197.697 57.6326 175.994 64.1225 174.456 87.8998C174.442 99.8526 174.427 111.82 174.413 123.772C174.399 142.971 176.353 163.496 173.896 182.524C168.578 223.589 124.597 252.729 84.4394 251.017C58.6834 249.919 33.2723 238.28 16.5998 218.582C16.298 218.225 15.9962 217.855 15.6943 217.484C4.23922 203.477 0.0136261 187.973 0.0136261 170.272C0.0136261 142.415 0.0136261 114.558 0.0136261 86.6874C0.0136261 60.3712 0.0136261 59.33 0.0136261 33.0138L3.66432 32.7713C12.1155 32.4005 4.39732 20.8756 8.30672 20.8756L35.6007 21.1751C36.0318 21.1751 36.4487 21.1608 36.8798 21.1323C44.7992 20.4762 51.5832 26.6808 51.5832 34.5685V159.659C51.5832 159.659 51.0945 190.141 84.2957 194.491C85.503 194.648 86.7247 194.691 87.9464 194.619C96.1101 194.163 124.367 189.755 122.197 150.83V78.5857C122.197 63.3808 126.652 48.3756 135.65 36.0805C147.119 20.4049 167.14 3.06044 200.155 1.09208C200.169 1.1206 222.878 -2.11721 247.959 9.36491Z" fill="url(#paint0_linear_243_571)"/>
<path fill-rule="evenodd" clip-rule="evenodd" d="M205 47.6337C227.666 16.6249 275.456 19.72 293.422 53.6244L293.723 54.2092L377.258 213.076C386.485 230.634 373.65 251.659 353.687 251.659C343.942 251.659 334.959 246.367 330.317 237.852L298.939 180.408L263.152 238.394C253.106 255.51 228.341 255.938 217.691 239.178C212.488 230.991 211.906 219.492 216.678 211.048L269.008 125.61L240.214 72.8944C240.214 72.8944 225.927 48.0474 197.699 57.6182L205 47.6337Z" fill="url(#paint1_linear_243_571)"/>
<path d="M16.5358 218.846C16.2349 218.487 15.934 218.114 15.6331 217.756C4.21276 203.715 0 188.168 0 170.44C0 142.516 0 114.591 0 86.6811C0 60.3055 0 52.1017 0 25.7261V0.497864H19.4303C37.0981 0.497864 51.4129 14.8402 51.4129 32.51V159.813C51.4129 159.813 52.0578 171.201 56.815 177.97" fill="url(#paint2_linear_243_571)"/>
<path d="M21.2286 224.002C21.2286 224.002 -1.52588e-05 206.415 -1.52588e-05 170.414V122.503C-1.52588e-05 122.503 39.1515 132.915 53.668 171.641C53.668 171.641 91.9571 261.986 173.925 181.611C173.925 181.611 173.077 220.693 123.448 243.514C123.448 243.514 73.1862 270.572 21.2286 224.002Z" fill="url(#paint3_linear_243_571)"/>
<path d="M239.724 6.0558C214.486 -1.1758 200.099 1.07783 200.099 1.07783C155.227 3.74511 134.357 34.8396 126.323 51.5136C123.549 57.2903 122.126 63.5663 122.126 69.9706L122.184 128.094C122.184 128.094 159.797 127.709 174.371 88.071C174.4 87.9996 174.371 87.9283 174.371 87.8427C175.65 67.5172 192.007 60.1145 192.007 60.1145C192.007 60.1145 233.616 21.7742 281.046 35.025C281.075 35.025 261.657 12.3317 239.724 6.0558Z" fill="#B7F0FD"/>
<path d="M252.687 95.7731C252.687 95.7731 295.758 137.394 331.977 126.939L330.633 124.433L329.288 121.928C329.288 121.928 326.947 115.685 314.462 93.0564C314.462 93.0564 308.22 80.5715 302.456 70.681C302.456 70.681 292.687 46.4499 281.073 35.0391C281.073 35.0391 236.728 19.4362 192.034 60.1286C192.034 60.1286 227.722 50.0729 240.212 72.923L252.687 95.7731Z" fill="url(#paint4_linear_243_571)"/>
<circle cx="352.76" cy="28.2199" r="28.0197" fill="#B7F0FD"/>
<defs>
<linearGradient id="paint0_linear_243_571" x1="-56.9916" y1="125.894" x2="313.126" y2="125.894" gradientUnits="userSpaceOnUse">
<stop offset="0.5" stop-color="#73EAF1"/>
<stop offset="0.702701" stop-color="#4C9AA6"/>
</linearGradient>
<linearGradient id="paint1_linear_243_571" x1="304.686" y1="211.605" x2="248.937" y2="43.035" gradientUnits="userSpaceOnUse">
<stop stop-color="#73EAF1"/>
<stop offset="0.475769" stop-color="#4C9AA6"/>
</linearGradient>
<linearGradient id="paint2_linear_243_571" x1="30.0932" y1="68.5771" x2="22.6069" y2="160.329" gradientUnits="userSpaceOnUse">
<stop offset="0.00072338" stop-color="#73EAF1"/>
<stop offset="0.8769" stop-color="#4C9AA6"/>
</linearGradient>
<linearGradient id="paint3_linear_243_571" x1="-22.3435" y1="186.915" x2="218.989" y2="186.915" gradientUnits="userSpaceOnUse">
<stop offset="0.2215" stop-color="#73EAF1"/>
<stop offset="0.4808" stop-color="#4C9AA6"/>
</linearGradient>
<linearGradient id="paint4_linear_243_571" x1="323.065" y1="139.193" x2="237.285" y2="-30.1379" gradientUnits="userSpaceOnUse">
<stop offset="0.3609" stop-color="#73EAF1"/>
<stop offset="0.8763" stop-color="#4C9AA6"/>
</linearGradient>
</defs>
</svg>
